G04*
G04 #@! TF.GenerationSoftware,Altium Limited,Altium Designer,21.4.1 (30)*
G04*
G04 Layer_Color=65535*
%FSLAX25Y25*%
%MOIN*%
G70*
G04*
G04 #@! TF.SameCoordinates,33F1FE42-B6F4-420A-9065-0E2226A42BD6*
G04*
G04*
G04 #@! TF.FilePolarity,Positive*
G04*
G01*
G75*
%ADD10C,0.00787*%
%ADD11C,0.00500*%
%ADD12C,0.00600*%
%ADD13C,0.07500*%
%ADD14C,0.01000*%
D10*
X28035Y56090D02*
X27248D01*
X28035D01*
X212528Y18870D02*
Y25563D01*
X203472Y18870D02*
X205047Y16902D01*
X210953D02*
X212528Y18870D01*
X203472D02*
Y25563D01*
X205047Y16902D02*
X210953D01*
X203472Y40917D02*
X212528D01*
Y33437D02*
Y40917D01*
X203472Y33437D02*
Y40917D01*
X106047Y75528D02*
X112740D01*
Y66472D02*
X114709Y68047D01*
X112740Y75528D02*
X114709Y73953D01*
X106047Y66472D02*
X112740D01*
X114709Y68047D02*
Y73953D01*
X90693Y66472D02*
Y75528D01*
X98173D01*
X90693Y66472D02*
X98173D01*
D11*
X5791Y36208D02*
Y65342D01*
Y36208D02*
X6854D01*
X5791Y65342D02*
X6854D01*
X22720Y36208D02*
Y36917D01*
Y64633D02*
Y65342D01*
X15811Y36208D02*
X22720D01*
X15811Y65342D02*
X22720D01*
D12*
X37600Y40800D02*
X38400D01*
X37600Y35200D02*
X38400D01*
X37600Y60300D02*
X38400D01*
X37600Y54700D02*
X38400D01*
D13*
X55500Y70690D02*
Y30703D01*
X82158D01*
X95487D02*
X108816D01*
X102152D01*
Y57361D01*
X95487D01*
X135474D02*
X148803D01*
X155468Y50696D01*
Y30703D01*
X135474D01*
X128810Y37367D01*
X135474Y44032D01*
X155468D01*
X168797Y30703D02*
Y57361D01*
X175461D01*
X182126Y50696D01*
Y30703D01*
Y50696D01*
X188790Y57361D01*
X195455Y50696D01*
Y30703D01*
D14*
X1001Y71839D02*
Y77837D01*
X4000D01*
X5000Y76837D01*
Y74838D01*
X4000Y73838D01*
X1001D01*
X6999Y71839D02*
X8999D01*
X7999D01*
Y77837D01*
X6999Y76837D01*
X32300Y44600D02*
Y50598D01*
X35299D01*
X36299Y49598D01*
Y47599D01*
X35299Y46599D01*
X32300D01*
X34299D02*
X36299Y44600D01*
X42297D02*
X38298D01*
X42297Y48599D01*
Y49598D01*
X41297Y50598D01*
X39298D01*
X38298Y49598D01*
X32300Y64100D02*
Y70098D01*
X35299D01*
X36299Y69098D01*
Y67099D01*
X35299Y66099D01*
X32300D01*
X34299D02*
X36299Y64100D01*
X38298D02*
X40297D01*
X39298D01*
Y70098D01*
X38298Y69098D01*
X203500Y51098D02*
Y45100D01*
X206499D01*
X207499Y46100D01*
Y50098D01*
X206499Y51098D01*
X203500D01*
X213497Y45100D02*
X209498D01*
X213497Y49099D01*
Y50098D01*
X212497Y51098D01*
X210498D01*
X209498Y50098D01*
X90500Y85498D02*
Y79500D01*
X93499D01*
X94499Y80500D01*
Y84498D01*
X93499Y85498D01*
X90500D01*
X96498Y79500D02*
X98497D01*
X97498D01*
Y85498D01*
X96498Y84498D01*
M02*
