G04*
G04 #@! TF.GenerationSoftware,Altium Limited,Altium Designer,21.4.1 (30)*
G04*
G04 Layer_Color=32896*
%FSLAX25Y25*%
%MOIN*%
G70*
G04*
G04 #@! TF.SameCoordinates,33F1FE42-B6F4-420A-9065-0E2226A42BD6*
G04*
G04*
G04 #@! TF.FilePolarity,Positive*
G04*
G01*
G75*
%ADD14C,0.01000*%
D14*
X213500Y89792D02*
Y95790D01*
X210501D01*
X209501Y94790D01*
Y92791D01*
X210501Y91791D01*
X213500D01*
X203503Y94790D02*
X204503Y95790D01*
X206502D01*
X207502Y94790D01*
Y90791D01*
X206502Y89792D01*
X204503D01*
X203503Y90791D01*
X201504Y95790D02*
Y89792D01*
X198505D01*
X197505Y90791D01*
Y91791D01*
X198505Y92791D01*
X201504D01*
X198505D01*
X197505Y93790D01*
Y94790D01*
X198505Y95790D01*
X201504D01*
X195506Y88792D02*
X191507D01*
X189508Y95790D02*
Y89792D01*
X186509D01*
X185509Y90791D01*
Y94790D01*
X186509Y95790D01*
X189508D01*
X182510Y89792D02*
X180511D01*
X179511Y90791D01*
Y92791D01*
X180511Y93790D01*
X182510D01*
X183510Y92791D01*
Y90791D01*
X182510Y89792D01*
X175512Y87792D02*
X174513D01*
X173513Y88792D01*
Y93790D01*
X176512D01*
X177512Y92791D01*
Y90791D01*
X176512Y89792D01*
X173513D01*
X171514Y95790D02*
X167515D01*
X169514D01*
Y89792D01*
X164516Y93790D02*
X162516D01*
X161517Y92791D01*
Y89792D01*
X164516D01*
X165515Y90791D01*
X164516Y91791D01*
X161517D01*
X157518Y87792D02*
X156518D01*
X155519Y88792D01*
Y93790D01*
X158518D01*
X159518Y92791D01*
Y90791D01*
X158518Y89792D01*
X155519D01*
X213500Y84193D02*
Y78195D01*
X209501D01*
X207502D02*
X205503D01*
X206502D01*
Y82193D01*
X207502D01*
X201504D02*
X199504D01*
X198505Y81194D01*
Y78195D01*
X201504D01*
X202504Y79194D01*
X201504Y80194D01*
X198505D01*
X196505Y78195D02*
Y82193D01*
X195506D01*
X194506Y81194D01*
Y78195D01*
Y81194D01*
X193507Y82193D01*
X192507Y81194D01*
Y78195D01*
X184509Y84193D02*
Y78195D01*
X181510D01*
X180511Y79194D01*
Y80194D01*
X181510Y81194D01*
X184509D01*
X181510D01*
X180511Y82193D01*
Y83193D01*
X181510Y84193D01*
X184509D01*
X177512Y78195D02*
X175512D01*
X174513Y79194D01*
Y81194D01*
X175512Y82193D01*
X177512D01*
X178511Y81194D01*
Y79194D01*
X177512Y78195D01*
X172513D02*
Y82193D01*
X169514D01*
X168515Y81194D01*
Y78195D01*
X165515Y83193D02*
Y82193D01*
X166515D01*
X164516D01*
X165515D01*
Y79194D01*
X164516Y78195D01*
X161517D02*
Y84193D01*
Y80194D02*
X158518Y82193D01*
X161517Y80194D02*
X158518Y78195D01*
X152520D02*
X154519D01*
X155519Y79194D01*
Y81194D01*
X154519Y82193D01*
X152520D01*
X151520Y81194D01*
Y80194D01*
X155519D01*
X149521Y78195D02*
X146522D01*
X145522Y79194D01*
X146522Y80194D01*
X148521D01*
X149521Y81194D01*
X148521Y82193D01*
X145522D01*
X213500Y74595D02*
Y69597D01*
X212500Y68597D01*
X210501D01*
X209501Y69597D01*
Y74595D01*
X207502D02*
Y68597D01*
X204503D01*
X203503Y69597D01*
Y70596D01*
X204503Y71596D01*
X207502D01*
X204503D01*
X203503Y72596D01*
Y73595D01*
X204503Y74595D01*
X207502D01*
X197505Y73595D02*
X198505Y74595D01*
X200504D01*
X201504Y73595D01*
Y69597D01*
X200504Y68597D01*
X198505D01*
X197505Y69597D01*
X189508Y74595D02*
X185509D01*
X187508D01*
Y68597D01*
X183510Y74595D02*
Y68597D01*
Y71596D01*
X182510Y72596D01*
X180511D01*
X179511Y71596D01*
Y68597D01*
X177512Y72596D02*
Y69597D01*
X176512Y68597D01*
X173513D01*
Y72596D01*
X171514Y68597D02*
Y72596D01*
X168515D01*
X167515Y71596D01*
Y68597D01*
X161517Y74595D02*
Y68597D01*
X164516D01*
X165515Y69597D01*
Y71596D01*
X164516Y72596D01*
X161517D01*
X156518Y68597D02*
X158518D01*
X159518Y69597D01*
Y71596D01*
X158518Y72596D01*
X156518D01*
X155519Y71596D01*
Y70596D01*
X159518D01*
X153519Y72596D02*
Y68597D01*
Y70596D01*
X152520Y71596D01*
X151520Y72596D01*
X150520D01*
X147521Y74595D02*
Y68597D01*
X144522D01*
X143523Y69597D01*
Y70596D01*
Y71596D01*
X144522Y72596D01*
X147521D01*
X140524Y68597D02*
X138524D01*
X137525Y69597D01*
Y71596D01*
X138524Y72596D01*
X140524D01*
X141523Y71596D01*
Y69597D01*
X140524Y68597D01*
X134526Y73595D02*
Y72596D01*
X135525D01*
X133526D01*
X134526D01*
Y69597D01*
X133526Y68597D01*
X130527D02*
X127528D01*
X126528Y69597D01*
X127528Y70596D01*
X129527D01*
X130527Y71596D01*
X129527Y72596D01*
X126528D01*
X209501Y63998D02*
X210501Y64997D01*
X212500D01*
X213500Y63998D01*
Y62998D01*
X212500Y61998D01*
X210501D01*
X209501Y60999D01*
Y59999D01*
X210501Y58999D01*
X212500D01*
X213500Y59999D01*
X204503Y58999D02*
X206502D01*
X207502Y59999D01*
Y61998D01*
X206502Y62998D01*
X204503D01*
X203503Y61998D01*
Y60999D01*
X207502D01*
X201504Y57000D02*
Y62998D01*
X198505D01*
X197505Y61998D01*
Y59999D01*
X198505Y58999D01*
X201504D01*
X194506Y63998D02*
Y62998D01*
X195506D01*
X193507D01*
X194506D01*
Y59999D01*
X193507Y58999D01*
X180511D02*
X184509D01*
X180511Y62998D01*
Y63998D01*
X181510Y64997D01*
X183510D01*
X184509Y63998D01*
X178511D02*
X177512Y64997D01*
X175512D01*
X174513Y63998D01*
Y59999D01*
X175512Y58999D01*
X177512D01*
X178511Y59999D01*
Y63998D01*
X168515Y58999D02*
X172513D01*
X168515Y62998D01*
Y63998D01*
X169514Y64997D01*
X171514D01*
X172513Y63998D01*
X166515Y58999D02*
X164516D01*
X165515D01*
Y64997D01*
X166515Y63998D01*
M02*
